<?xml version="1.0" encoding="UTF-8" standalone="no"?>
<!DOCTYPE svg PUBLIC "-//W3C//DTD SVG 1.1//EN"
 "http://www.w3.org/Graphics/SVG/1.1/DTD/svg11.dtd">
<!-- Generated by graphviz version 2.47.0 (20210316.0004)
 -->
<!-- Title: dependencies Pages: 1 -->
<svg width="656pt" height="211pt"
 viewBox="0.00 0.00 656.00 211.00" xmlns="http://www.w3.org/2000/svg" xmlns:xlink="http://www.w3.org/1999/xlink">
<g id="graph0" class="graph" transform="scale(1 1) rotate(0) translate(4 207)">
<title>dependencies</title>
<polygon fill="white" stroke="transparent" points="-4,4 -4,-207 652,-207 652,4 -4,4"/>
<text text-anchor="start" x="303.01" y="-42.4" font-family="Times-12" font-weight="bold" font-size="14.00">Legend</text>
<polygon fill="#ffffb3" stroke="transparent" points="90,-10 90,-30 110,-30 110,-10 90,-10"/>
<text text-anchor="start" x="113.63" y="-15.4" font-family="Times-12" font-size="14.00"> &#160;Declarations</text>
<polygon fill="#8dd3c7" stroke="transparent" points="203,-10 203,-30 223,-30 223,-10 203,-10"/>
<text text-anchor="start" x="226.73" y="-15.4" font-family="Times-12" font-size="14.00"> &#160;Module</text>
<polygon fill="#80b1d3" stroke="transparent" points="289,-10 289,-30 309,-30 309,-10 289,-10"/>
<text text-anchor="start" x="312.78" y="-15.4" font-family="Times-12" font-size="14.00"> &#160;Bootstrap</text>
<polygon fill="#fdb462" stroke="transparent" points="386,-10 386,-30 406,-30 406,-10 386,-10"/>
<text text-anchor="start" x="409.67" y="-15.4" font-family="Times-12" font-size="14.00"> &#160;Providers</text>
<polygon fill="#fb8072" stroke="transparent" points="482,-10 482,-30 502,-30 502,-10 482,-10"/>
<text text-anchor="start" x="505.73" y="-15.4" font-family="Times-12" font-size="14.00"> &#160;Exports</text>
<g id="clust1" class="cluster">
<title>cluster_AppModule</title>
<polygon fill="none" stroke="black" stroke-dasharray="1,5" points="8,-70 8,-195 640,-195 640,-70 8,-70"/>
</g>
<g id="clust3" class="cluster">
<title>cluster_AppModule_imports</title>
<polygon fill="none" stroke="black" points="154,-78 154,-130 632,-130 632,-78 154,-78"/>
</g>
<g id="clust6" class="cluster">
<title>cluster_AppModule_providers</title>
<polygon fill="none" stroke="black" points="16,-78 16,-130 146,-130 146,-78 16,-78"/>
</g>
<!-- ConfigModule -->
<g id="node1" class="node">
<title>ConfigModule</title>
<polygon fill="#8dd3c7" stroke="black" points="624.44,-122 621.44,-126 600.44,-126 597.44,-122 525.56,-122 525.56,-86 624.44,-86 624.44,-122"/>
<text text-anchor="middle" x="575" y="-99.8" font-family="Times,serif" font-size="14.00">ConfigModule</text>
</g>
<!-- AppModule -->
<g id="node5" class="node">
<title>AppModule</title>
<polygon fill="#8dd3c7" stroke="black" points="392.66,-187 389.66,-191 368.66,-191 365.66,-187 309.34,-187 309.34,-151 392.66,-151 392.66,-187"/>
<text text-anchor="middle" x="351" y="-164.8" font-family="Times,serif" font-size="14.00">AppModule</text>
</g>
<!-- ConfigModule&#45;&gt;AppModule -->
<g id="edge1" class="edge">
<title>ConfigModule&#45;&gt;AppModule</title>
<path fill="none" stroke="black" d="M575,-122.28C575,-143.32 575,-175 575,-175 575,-175 402.87,-175 402.87,-175"/>
<polygon fill="black" stroke="black" points="402.87,-171.5 392.87,-175 402.87,-178.5 402.87,-171.5"/>
</g>
<!-- LockModule -->
<g id="node2" class="node">
<title>LockModule</title>
<polygon fill="#8dd3c7" stroke="black" points="508.32,-122 505.32,-126 484.32,-126 481.32,-122 419.68,-122 419.68,-86 508.32,-86 508.32,-122"/>
<text text-anchor="middle" x="464" y="-99.8" font-family="Times,serif" font-size="14.00">LockModule</text>
</g>
<!-- LockModule&#45;&gt;AppModule -->
<g id="edge2" class="edge">
<title>LockModule&#45;&gt;AppModule</title>
<path fill="none" stroke="black" d="M464,-122.02C464,-139.37 464,-163 464,-163 464,-163 402.76,-163 402.76,-163"/>
<polygon fill="black" stroke="black" points="402.76,-159.5 392.76,-163 402.76,-166.5 402.76,-159.5"/>
</g>
<!-- SessionModule -->
<g id="node3" class="node">
<title>SessionModule</title>
<polygon fill="#8dd3c7" stroke="black" points="402.33,-122 399.33,-126 378.33,-126 375.33,-122 299.67,-122 299.67,-86 402.33,-86 402.33,-122"/>
<text text-anchor="middle" x="351" y="-99.8" font-family="Times,serif" font-size="14.00">SessionModule</text>
</g>
<!-- SessionModule&#45;&gt;AppModule -->
<g id="edge3" class="edge">
<title>SessionModule&#45;&gt;AppModule</title>
<path fill="none" stroke="black" d="M351,-122.11C351,-122.11 351,-140.99 351,-140.99"/>
<polygon fill="black" stroke="black" points="347.5,-140.99 351,-150.99 354.5,-140.99 347.5,-140.99"/>
</g>
<!-- WebhooksModule -->
<g id="node4" class="node">
<title>WebhooksModule</title>
<polygon fill="#8dd3c7" stroke="black" points="281.92,-122 278.92,-126 257.92,-126 254.92,-122 162.08,-122 162.08,-86 281.92,-86 281.92,-122"/>
<text text-anchor="middle" x="222" y="-99.8" font-family="Times,serif" font-size="14.00">WebhooksModule</text>
</g>
<!-- WebhooksModule&#45;&gt;AppModule -->
<g id="edge4" class="edge">
<title>WebhooksModule&#45;&gt;AppModule</title>
<path fill="none" stroke="black" d="M222,-122.02C222,-139.37 222,-163 222,-163 222,-163 299.12,-163 299.12,-163"/>
<polygon fill="black" stroke="black" points="299.12,-166.5 309.12,-163 299.12,-159.5 299.12,-166.5"/>
</g>
<!-- AppService -->
<g id="node6" class="node">
<title>AppService</title>
<ellipse fill="#fdb462" stroke="black" cx="81" cy="-104" rx="56.74" ry="18"/>
<text text-anchor="middle" x="81" y="-99.8" font-family="Times,serif" font-size="14.00">AppService</text>
</g>
<!-- AppService&#45;&gt;AppModule -->
<g id="edge5" class="edge">
<title>AppService&#45;&gt;AppModule</title>
<path fill="none" stroke="black" d="M81,-122.28C81,-143.32 81,-175 81,-175 81,-175 299.11,-175 299.11,-175"/>
<polygon fill="black" stroke="black" points="299.11,-178.5 309.11,-175 299.11,-171.5 299.11,-178.5"/>
</g>
</g>
</svg>
